# xmcd
#
# Track frame offsets:
#	150
#	12475
#	31352
#	46352
#	56327
#	69617
#	89540
#	102852
#	117527
#	129355
#	146007
#	157565
#
# Disc length: 2354 seconds
#
# Revision: 0
# Processed by: cddbd v1.5.2PL0 Copyright (c) Steve Scherf et al.
# Submitted via: EasyCDDAExtractor 10.5.1.1
#
DISCID=9d09300c
DTITLE=Brenda Lee - Favorite Gospel Songs
DYEAR=1900
DGENRE=Gospel
TTITLE0=This Little Light of Mine\n
TTITLE1=Just a Closer Walk with Thee\n
TTITLE2=Softly And Tenderly\n
TTITLE3=Have A Little Talk With Jesus\n
TTITLE4=Amazing Grace\n
TTITLE5=What a Friend We Have in Jesus\n
TTITLE6=When the Roll Is Called Up Yonder\n
TTITLE7=In the Garden\n
TTITLE8=The Unclouded Day\n
TTITLE9=The Old Rugged Cross\n
TTITLE10=Jesus Loves Me\n
TTITLE11=Precious Memories\n
EXTD=
EXTT0=
EXTT1=
EXTT2=
EXTT3=
EXTT4=
EXTT5=
EXTT6=
EXTT7=
EXTT8=
EXTT9=
EXTT10=
EXTT11=
PLAYORDER=
